<?xml version="1.0" encoding="utf-8"?>
<!-- Generator: Adobe Illustrator 14.0.0, SVG Export Plug-In . SVG Version: 6.00 Build 43363)  -->
<!DOCTYPE svg PUBLIC "-//W3C//DTD SVG 1.1//EN" "http://www.w3.org/Graphics/SVG/1.1/DTD/svg11.dtd">
<svg version="1.1" id="Ebene_1" xmlns="http://www.w3.org/2000/svg" xmlns:xlink="http://www.w3.org/1999/xlink" x="0px" y="0px"
	 width="113.39px" height="68.03px" viewBox="0 0 113.39 68.03" enable-background="new 0 0 113.39 68.03" xml:space="preserve">
<g>
	<path fill="#1A171B" d="M25.878,49.771c0.063-0.018,0.099-0.054,0.099-0.099c0-0.207-0.171-0.136-0.171-1.404v-2.808
		c0-0.153-0.017-0.189-0.063-0.189c-0.036,0-0.125,0.027-0.153,0.027l-0.756,0.153c-0.108,0.026-0.17,0.036-0.17,0.161V48.8
		c-0.117,0.081-0.415,0.278-0.792,0.278c-0.459,0-0.504-0.413-0.504-0.755v-2.862c0-0.153-0.018-0.189-0.072-0.189
		c-0.026,0-0.117,0.027-0.144,0.027l-0.756,0.153c-0.108,0.026-0.17,0.036-0.17,0.161v3.097c0,1.089,0.674,1.314,1.169,1.314
		c0.711,0,1.134-0.315,1.377-0.532c0.099,0.36,0.171,0.532,0.288,0.532c0.036,0,0.081-0.01,0.135-0.027L25.878,49.771L25.878,49.771
		z"/>
	<path fill="#1A171B" d="M30.793,46.586c0-1.089-0.675-1.314-1.17-1.314c-0.711,0-1.116,0.387-1.377,0.621
		c-0.099-0.423-0.171-0.621-0.288-0.621c-0.036,0-0.081,0.009-0.135,0.027l-0.684,0.226c-0.063,0.018-0.099,0.053-0.099,0.098
		c0,0.208,0.171,0.136,0.171,1.404v2.719c0,0.099,0.019,0.126,0.126,0.126h0.891c0.108,0,0.126-0.027,0.126-0.126v-3.159
		c0.117-0.108,0.414-0.369,0.792-0.369c0.459,0,0.504,0.414,0.504,0.756v2.772c0,0.099,0.018,0.126,0.126,0.126h0.891
		c0.108,0,0.126-0.027,0.126-0.126V46.586L30.793,46.586z"/>
	<path fill-rule="evenodd" clip-rule="evenodd" fill="#1A171B" d="M34.385,48.809c-0.108,0.117-0.261,0.315-0.666,0.315
		c-0.585,0-0.756-0.433-0.756-1.449c0-0.999,0.135-1.503,0.81-1.503c0.378,0,0.531,0.135,0.612,0.18V48.809L34.385,48.809z
		 M35.609,49.709c0.044-0.019,0.081-0.045,0.081-0.081c0-0.18-0.163-0.297-0.163-1.17v-4.914c0-0.153-0.018-0.188-0.09-0.188
		c-0.018,0-0.099,0.026-0.126,0.026l-0.756,0.152c-0.107,0.027-0.171,0.027-0.171,0.163v1.845c-0.144-0.099-0.351-0.271-0.837-0.271
		c-1.116,0-1.728,0.855-1.728,2.556c0,1.368,0.513,2.197,1.54,2.197c0.647,0,1.043-0.406,1.188-0.54
		c0.045,0.225,0.18,0.54,0.261,0.54c0.036,0,0.081-0.027,0.117-0.036L35.609,49.709L35.609,49.709z"/>
	<path fill="#1A171B" d="M44.31,46.721c-0.09,0.495-0.171,1.242-0.207,1.701h-0.018c-0.054-0.514-0.144-1.242-0.252-1.701
		l-0.639-2.744c-0.045-0.19-0.054-0.271-0.198-0.271h-0.612c-0.216,0-0.225,0.08-0.27,0.271l-0.639,2.744
		c-0.108,0.459-0.234,1.188-0.287,1.701h-0.019c-0.036-0.459-0.108-1.206-0.198-1.701l-0.54-2.916c-0.037-0.18-0.09-0.18-0.135-0.18
		c-0.055,0-0.1,0.009-0.136,0.018l-0.702,0.126c-0.072,0.018-0.171,0.036-0.171,0.091c0,0.053,0.027,0.134,0.036,0.197l1.169,5.733
		c0.027,0.126,0.063,0.162,0.198,0.162h0.774c0.162,0,0.162-0.027,0.198-0.162l0.729-3.024c0.099-0.414,0.18-0.954,0.225-1.557
		h0.018c0.045,0.594,0.126,1.151,0.207,1.557l0.595,3.024c0.026,0.135,0.036,0.162,0.197,0.162h0.774
		c0.135,0,0.162-0.036,0.198-0.162l1.314-5.725c0.018-0.063,0.044-0.153,0.044-0.198c0-0.053-0.099-0.071-0.171-0.089l-0.675-0.136
		c-0.036-0.009-0.081-0.018-0.135-0.018c-0.045,0-0.099,0-0.135,0.18L44.31,46.721L44.31,46.721z"/>
	<path fill-rule="evenodd" clip-rule="evenodd" fill="#1A171B" d="M48.493,45.551c0-0.099-0.018-0.126-0.126-0.126h-1.71
		c-0.108,0-0.125,0.027-0.125,0.126v0.585c0,0.099,0.018,0.126,0.125,0.126h0.693v3.483c0,0.099,0.018,0.126,0.126,0.126h0.891
		c0.108,0,0.126-0.027,0.126-0.126V45.551L48.493,45.551z M48.655,44.093c0-0.414-0.333-0.737-0.738-0.737
		c-0.414,0-0.747,0.323-0.747,0.737s0.333,0.747,0.747,0.747C48.322,44.84,48.655,44.507,48.655,44.093L48.655,44.093z"/>
	<path fill="#1A171B" d="M51.173,46.738c0.117-0.125,0.405-0.432,0.684-0.432c0.207,0,0.369,0.099,0.423,0.099
		c0.036,0,0.063-0.054,0.072-0.081l0.279-0.755c0.009-0.019,0.018-0.055,0.018-0.091c0-0.116-0.261-0.207-0.522-0.207
		c-0.612,0-0.945,0.504-1.116,0.712c-0.045-0.307-0.225-0.712-0.333-0.712c-0.037,0-0.081,0.027-0.117,0.036l-0.684,0.279
		c-0.045,0.019-0.081,0.045-0.081,0.081c0,0.207,0.234,0.368,0.234,1.358v2.719c0,0.099,0.018,0.126,0.126,0.126h0.891
		c0.108,0,0.126-0.027,0.126-0.126V46.738L51.173,46.738z"/>
	<path fill="#1A171B" d="M55.86,48.872c-0.009-0.036-0.036-0.054-0.071-0.054c-0.126,0-0.352,0.17-0.711,0.17
		c-0.306,0-0.306-0.261-0.306-0.548v-2.179h0.891c0.108,0,0.135-0.009,0.162-0.135l0.117-0.531c0.009-0.036,0.009-0.054,0.009-0.071
		c0-0.1-0.072-0.1-0.153-0.1h-1.026v-1.26c0-0.108-0.009-0.153-0.09-0.153c-0.054,0-0.09,0.009-0.117,0.009l-0.792,0.108
		c-0.126,0.018-0.145,0.045-0.145,0.162v1.134h-0.639c-0.107,0-0.125,0.027-0.125,0.126v0.585c0,0.099,0.018,0.126,0.125,0.126
		h0.639v2.024c0,0.828,0,1.738,1.161,1.738c0.612,0,1.269-0.172,1.269-0.343c0-0.027-0.009-0.027-0.018-0.072L55.86,48.872
		L55.86,48.872z"/>
	<path fill="#1A171B" d="M59.65,45.83c0.018-0.036,0.045-0.091,0.045-0.117c0-0.207-0.855-0.441-1.404-0.441
		c-0.972,0-1.593,0.648-1.593,1.467c0,0.522,0.262,0.838,0.532,1.018c0.593,0.396,1.475,0.396,1.475,0.918
		c0,0.323-0.252,0.45-0.549,0.45c-0.558,0-1.251-0.396-1.287-0.396s-0.054,0.036-0.072,0.081l-0.198,0.514
		c-0.009,0.036-0.045,0.089-0.045,0.117c0,0.242,1.027,0.585,1.692,0.585c0.953,0,1.539-0.621,1.539-1.45
		c0-0.521-0.252-0.863-0.604-1.098c-0.639-0.423-1.448-0.387-1.448-0.873c0-0.306,0.251-0.432,0.592-0.432
		c0.576,0,1.018,0.233,1.045,0.233c0.01,0,0.055-0.035,0.072-0.081L59.65,45.83L59.65,45.83z"/>
	<path fill="#1A171B" d="M63.645,48.863c-0.02-0.027-0.037-0.045-0.064-0.045c-0.162,0-0.342,0.306-0.801,0.306
		c-0.693,0-0.926-0.459-0.926-1.449c0-1.035,0.27-1.503,0.881-1.503c0.469,0,0.766,0.36,0.855,0.36c0.027,0,0.045-0.027,0.063-0.045
		l0.334-0.586c0.008-0.026,0.025-0.054,0.025-0.081c0-0.278-0.791-0.549-1.277-0.549c-1.332,0-2.098,0.945-2.098,2.467
		c0,1.521,0.748,2.286,2,2.286c0.539,0,1.268-0.262,1.268-0.478c0-0.027-0.018-0.063-0.027-0.091L63.645,48.863L63.645,48.863z"/>
	<path fill="#1A171B" d="M68.484,46.694c0-0.783-0.217-1.423-1.17-1.423c-0.641,0-1,0.315-1.242,0.513v-2.24
		c0-0.153-0.02-0.188-0.092-0.188c-0.018,0-0.098,0.026-0.125,0.026L65.1,43.534c-0.107,0.027-0.172,0.027-0.172,0.163v6.048
		c0,0.099,0.02,0.126,0.127,0.126h0.891c0.107,0,0.127-0.027,0.127-0.126v-3.15c0.117-0.107,0.387-0.378,0.764-0.378
		c0.459,0,0.504,0.414,0.504,0.756v2.772c0,0.099,0.02,0.126,0.127,0.126h0.891c0.107,0,0.127-0.027,0.127-0.126V46.694
		L68.484,46.694z"/>
	<path fill-rule="evenodd" clip-rule="evenodd" fill="#1A171B" d="M73.191,49.709c0.045-0.019,0.08-0.045,0.08-0.081
		c0-0.18-0.232-0.297-0.232-1.17v-1.737c0-0.937-0.424-1.449-1.549-1.449c-0.693,0-1.584,0.217-1.584,0.423
		c0,0.036,0.01,0.072,0.027,0.108l0.18,0.549c0.01,0.036,0.045,0.09,0.09,0.09c0.117,0,0.611-0.27,1.115-0.27
		c0.566,0,0.639,0.261,0.639,0.666v0.279c-0.709,0-2.348,0-2.348,1.521c0,0.847,0.521,1.387,1.35,1.387c0.676,0,0.99-0.36,1.17-0.54
		c0.045,0.225,0.18,0.54,0.262,0.54c0.035,0,0.08-0.027,0.115-0.036L73.191,49.709L73.191,49.709z M71.957,48.845
		c-0.107,0.107-0.342,0.342-0.674,0.342c-0.342,0-0.594-0.261-0.594-0.612c0-0.792,1.043-0.719,1.268-0.719V48.845L71.957,48.845z"
		/>
	<path fill="#1A171B" d="M75.906,46.262h0.865c0.09,0,0.143-0.009,0.17-0.126l0.127-0.53c0.008-0.036,0.018-0.055,0.018-0.091
		c0-0.071-0.072-0.09-0.152-0.09h-1.027v-0.369c0-0.432,0.02-0.729,0.504-0.729c0.344,0,0.531,0.153,0.631,0.153
		c0.035,0,0.072-0.055,0.082-0.091l0.16-0.63c0.01-0.026,0.018-0.054,0.018-0.081c0-0.18-0.691-0.323-1.098-0.323
		c-1.078,0-1.439,0.71-1.439,1.7v0.369h-0.639c-0.154,0-0.189,0.027-0.189,0.188v0.46c0,0.161,0.035,0.188,0.189,0.188h0.639v3.42
		c0,0.162,0.037,0.189,0.189,0.189h0.764c0.154,0,0.189-0.027,0.189-0.189V46.262L75.906,46.262z"/>
	<path fill="#1A171B" d="M80.426,48.872c-0.01-0.036-0.035-0.054-0.072-0.054c-0.125,0-0.352,0.17-0.711,0.17
		c-0.305,0-0.305-0.261-0.305-0.548v-2.179h0.891c0.107,0,0.135-0.009,0.162-0.135l0.117-0.531c0.008-0.036,0.008-0.054,0.008-0.071
		c0-0.1-0.072-0.1-0.152-0.1h-1.025v-1.26c0-0.108-0.01-0.153-0.092-0.153c-0.053,0-0.09,0.009-0.117,0.009l-0.791,0.108
		c-0.125,0.018-0.145,0.045-0.145,0.162v1.134h-0.639c-0.107,0-0.127,0.027-0.127,0.126v0.585c0,0.099,0.02,0.126,0.127,0.126h0.639
		v2.024c0,0.828,0,1.738,1.162,1.738c0.611,0,1.268-0.172,1.268-0.343c0-0.027-0.008-0.027-0.018-0.072L80.426,48.872L80.426,48.872
		z"/>
	<path fill-rule="evenodd" clip-rule="evenodd" fill="#1A171B" d="M85.672,46.253V44.65h0.379c0.494,0,0.881,0.189,0.881,0.757
		c0,0.71-0.449,0.846-0.98,0.846H85.672L85.672,46.253z M85.672,48.926v-1.728h0.342c0.604,0,1.125,0.099,1.125,0.854
		c0,0.766-0.521,0.873-1.143,0.873H85.672L85.672,48.926z M84.646,43.706c-0.152,0-0.189,0.027-0.189,0.188v5.787
		c0,0.153,0.037,0.189,0.189,0.189h1.477c1.16,0,2.232-0.243,2.232-1.746c0-1.035-0.703-1.368-1.125-1.485
		c0.342-0.171,0.918-0.459,0.918-1.359c0-1.449-1.225-1.574-2.098-1.574H84.646L84.646,43.706z"/>
	<path fill-rule="evenodd" clip-rule="evenodd" fill="#1A171B" d="M92.664,48.854c-0.018-0.035-0.053-0.071-0.1-0.071
		c-0.125,0-0.494,0.296-1.143,0.296c-0.846,0-0.99-0.62-0.99-1.125h2.422c0.17,0,0.207-0.054,0.207-0.225
		c0-1.089-0.27-2.457-1.801-2.457c-1.205,0-1.971,0.99-1.971,2.422c0,1.655,0.828,2.331,2.016,2.331
		c0.711,0,1.611-0.298,1.611-0.532c0-0.036-0.008-0.071-0.027-0.099L92.664,48.854L92.664,48.854z M90.432,47.117
		c0.027-0.253,0.063-1.008,0.766-1.008c0.621,0,0.648,0.638,0.648,1.008H90.432L90.432,47.117z"/>
	<path fill="#1A171B" d="M95.373,46.738c0.117-0.125,0.404-0.432,0.684-0.432c0.207,0,0.369,0.099,0.424,0.099
		c0.035,0,0.063-0.054,0.072-0.081l0.279-0.755c0.008-0.019,0.016-0.055,0.016-0.091c0-0.116-0.26-0.207-0.521-0.207
		c-0.611,0-0.945,0.504-1.115,0.712c-0.045-0.307-0.225-0.712-0.334-0.712c-0.035,0-0.08,0.027-0.117,0.036l-0.684,0.279
		c-0.045,0.019-0.08,0.045-0.08,0.081c0,0.207,0.234,0.368,0.234,1.358v2.719c0,0.099,0.018,0.126,0.125,0.126h0.893
		c0.107,0,0.125-0.027,0.125-0.126V46.738L95.373,46.738z"/>
	<path fill="#1A171B" d="M99.35,48.962c-0.008-0.036-0.035-0.055-0.072-0.055c-0.053,0-0.17,0.081-0.35,0.081
		c-0.254,0-0.254-0.251-0.254-0.54v-4.904c0-0.153-0.018-0.188-0.09-0.188c-0.018,0-0.098,0.026-0.125,0.026l-0.756,0.152
		c-0.107,0.027-0.172,0.027-0.172,0.163v4.589c0,0.828,0,1.738,1.107,1.738c0.432,0,0.91-0.127,0.91-0.253
		c0-0.026-0.01-0.026-0.02-0.072L99.35,48.962L99.35,48.962z"/>
	<path fill-rule="evenodd" clip-rule="evenodd" fill="#1A171B" d="M101.896,45.551c0-0.099-0.02-0.126-0.127-0.126h-1.711
		c-0.107,0-0.125,0.027-0.125,0.126v0.585c0,0.099,0.018,0.126,0.125,0.126h0.693v3.483c0,0.099,0.02,0.126,0.127,0.126h0.891
		c0.107,0,0.127-0.027,0.127-0.126V45.551L101.896,45.551z M102.059,44.093c0-0.414-0.334-0.737-0.738-0.737
		c-0.414,0-0.748,0.323-0.748,0.737s0.334,0.747,0.748,0.747C101.725,44.84,102.059,44.507,102.059,44.093L102.059,44.093z"/>
	<path fill="#1A171B" d="M107.006,46.586c0-1.089-0.676-1.314-1.17-1.314c-0.711,0-1.117,0.387-1.377,0.621
		c-0.1-0.423-0.172-0.621-0.289-0.621c-0.035,0-0.08,0.009-0.135,0.027l-0.684,0.226c-0.063,0.018-0.1,0.053-0.1,0.098
		c0,0.208,0.172,0.136,0.172,1.404v2.719c0,0.099,0.018,0.126,0.125,0.126h0.891c0.109,0,0.127-0.027,0.127-0.126v-3.159
		c0.117-0.108,0.414-0.369,0.793-0.369c0.459,0,0.504,0.414,0.504,0.756v2.772c0,0.099,0.018,0.126,0.125,0.126h0.891
		c0.109,0,0.127-0.027,0.127-0.126V46.586L107.006,46.586z"/>
	<path fill="#1A171B" d="M26.373,34.095c0-0.162-0.036-0.189-0.189-0.189h-0.837c-0.153,0-0.189,0.027-0.189,0.189v2.304h-1.71
		v-2.304c0-0.162-0.036-0.189-0.189-0.189h-0.837c-0.153,0-0.189,0.027-0.189,0.189v5.787c0,0.162,0.036,0.188,0.189,0.188h0.837
		c0.153,0,0.189-0.026,0.189-0.188V37.37h1.71v2.512c0,0.162,0.036,0.188,0.189,0.188h0.837c0.153,0,0.189-0.026,0.189-0.188V34.095
		L26.373,34.095z"/>
	<path fill-rule="evenodd" clip-rule="evenodd" fill="#1A171B" d="M29.485,39.324c-0.63,0-0.738-0.64-0.738-1.477
		s0.117-1.476,0.738-1.476c0.621,0,0.738,0.639,0.738,1.476C30.223,38.694,30.115,39.324,29.485,39.324L29.485,39.324z
		 M31.438,37.848c0-1.449-0.747-2.376-1.953-2.376c-1.215,0-1.953,0.927-1.953,2.376s0.738,2.376,1.953,2.376
		S31.438,39.297,31.438,37.848L31.438,37.848z"/>
	<path fill="#1A171B" d="M35.378,39.063c-0.018-0.027-0.036-0.045-0.063-0.045c-0.162,0-0.342,0.307-0.801,0.307
		c-0.693,0-0.927-0.46-0.927-1.45c0-1.034,0.27-1.502,0.882-1.502c0.468,0,0.765,0.359,0.855,0.359c0.027,0,0.045-0.026,0.063-0.045
		l0.333-0.584c0.009-0.028,0.027-0.055,0.027-0.081c0-0.28-0.792-0.55-1.278-0.55c-1.332,0-2.097,0.945-2.097,2.466
		c0,1.521,0.747,2.286,1.998,2.286c0.54,0,1.269-0.261,1.269-0.477c0-0.027-0.018-0.063-0.027-0.091L35.378,39.063L35.378,39.063z"
		/>
	<path fill="#1A171B" d="M40.218,36.894c0-0.783-0.215-1.422-1.17-1.422c-0.638,0-0.999,0.315-1.242,0.514v-2.242
		c0-0.152-0.018-0.188-0.09-0.188c-0.018,0-0.099,0.027-0.126,0.027l-0.756,0.153c-0.108,0.027-0.17,0.027-0.17,0.162v6.048
		c0,0.099,0.018,0.125,0.125,0.125h0.891c0.108,0,0.126-0.026,0.126-0.125v-3.15c0.117-0.108,0.387-0.378,0.765-0.378
		c0.459,0,0.504,0.414,0.504,0.756v2.772c0,0.099,0.018,0.125,0.126,0.125h0.891c0.108,0,0.126-0.026,0.126-0.125V36.894
		L40.218,36.894z"/>
	<path fill="#1A171B" d="M44.27,36.03c0.018-0.037,0.044-0.09,0.044-0.117c0-0.207-0.854-0.441-1.404-0.441
		c-0.972,0-1.593,0.647-1.593,1.467c0,0.522,0.261,0.838,0.531,1.018c0.594,0.396,1.476,0.396,1.476,0.918
		c0,0.324-0.251,0.45-0.549,0.45c-0.558,0-1.251-0.396-1.287-0.396c-0.036,0-0.054,0.036-0.072,0.081l-0.198,0.514
		c-0.008,0.035-0.045,0.089-0.045,0.116c0,0.243,1.026,0.585,1.692,0.585c0.954,0,1.539-0.621,1.539-1.448
		c0-0.522-0.251-0.865-0.603-1.099c-0.639-0.423-1.449-0.388-1.449-0.873c0-0.307,0.252-0.432,0.594-0.432
		c0.576,0,1.018,0.234,1.044,0.234c0.01,0,0.054-0.036,0.072-0.081L44.27,36.03L44.27,36.03z"/>
	<path fill="#1A171B" d="M48.263,39.063c-0.018-0.027-0.036-0.045-0.063-0.045c-0.162,0-0.342,0.307-0.801,0.307
		c-0.692,0-0.927-0.46-0.927-1.45c0-1.034,0.27-1.502,0.882-1.502c0.468,0,0.765,0.359,0.855,0.359c0.027,0,0.045-0.026,0.063-0.045
		l0.333-0.584c0.008-0.028,0.026-0.055,0.026-0.081c0-0.28-0.792-0.55-1.278-0.55c-1.332,0-2.097,0.945-2.097,2.466
		c0,1.521,0.747,2.286,1.998,2.286c0.541,0,1.269-0.261,1.269-0.477c0-0.027-0.018-0.063-0.027-0.091L48.263,39.063L48.263,39.063z"
		/>
	<path fill="#1A171B" d="M53.103,36.894c0-0.783-0.216-1.422-1.169-1.422c-0.64,0-1,0.315-1.242,0.514v-2.242
		c0-0.152-0.018-0.188-0.09-0.188c-0.018,0-0.099,0.027-0.126,0.027l-0.756,0.153c-0.108,0.027-0.171,0.027-0.171,0.162v6.048
		c0,0.099,0.018,0.125,0.126,0.125h0.891c0.108,0,0.126-0.026,0.126-0.125v-3.15c0.117-0.108,0.387-0.378,0.765-0.378
		c0.459,0,0.504,0.414,0.504,0.756v2.772c0,0.099,0.018,0.125,0.126,0.125h0.891c0.108,0,0.126-0.026,0.126-0.125V36.894
		L53.103,36.894z"/>
	<path fill="#1A171B" d="M58.009,39.972c0.063-0.019,0.099-0.054,0.099-0.1c0-0.206-0.171-0.135-0.171-1.403V35.66
		c0-0.152-0.019-0.188-0.063-0.188c-0.036,0-0.126,0.027-0.153,0.027l-0.756,0.152c-0.108,0.027-0.171,0.036-0.171,0.162v3.186
		c-0.117,0.082-0.414,0.28-0.792,0.28c-0.458,0-0.504-0.415-0.504-0.757V35.66c0-0.152-0.018-0.188-0.072-0.188
		c-0.027,0-0.117,0.027-0.145,0.027l-0.756,0.152c-0.107,0.027-0.171,0.036-0.171,0.162v3.096c0,1.09,0.675,1.314,1.17,1.314
		c0.711,0,1.134-0.314,1.377-0.531c0.098,0.36,0.17,0.531,0.288,0.531c0.036,0,0.081-0.009,0.135-0.027L58.009,39.972L58.009,39.972
		z"/>
	<path fill="#1A171B" d="M61.168,39.162c-0.01-0.036-0.037-0.055-0.072-0.055c-0.055,0-0.172,0.081-0.352,0.081
		c-0.252,0-0.252-0.252-0.252-0.54v-4.905c0-0.152-0.018-0.188-0.09-0.188c-0.018,0-0.1,0.027-0.125,0.027l-0.756,0.153
		c-0.109,0.027-0.172,0.027-0.172,0.162v4.589c0,0.829,0,1.737,1.107,1.737c0.432,0,0.908-0.126,0.908-0.252
		c0-0.026-0.008-0.026-0.018-0.071L61.168,39.162L61.168,39.162z"/>
	<path fill-rule="evenodd" clip-rule="evenodd" fill="#1A171B" d="M65.352,39.054c-0.018-0.036-0.055-0.072-0.1-0.072
		c-0.125,0-0.494,0.298-1.143,0.298c-0.846,0-0.99-0.621-0.99-1.125h2.422c0.17,0,0.207-0.055,0.207-0.226
		c0-1.089-0.271-2.457-1.801-2.457c-1.205,0-1.971,0.99-1.971,2.421c0,1.656,0.828,2.331,2.016,2.331
		c0.711,0,1.611-0.297,1.611-0.531c0-0.036-0.01-0.072-0.027-0.099L65.352,39.054L65.352,39.054z M63.119,37.316
		c0.027-0.251,0.063-1.008,0.766-1.008c0.621,0,0.648,0.64,0.648,1.008H63.119L63.119,37.316z"/>
	<path fill="#1A171B" d="M71.236,36.462H72.1c0.09,0,0.145-0.009,0.172-0.126l0.125-0.531c0.01-0.036,0.018-0.054,0.018-0.09
		c0-0.072-0.072-0.091-0.152-0.091h-1.025v-0.368c0-0.433,0.018-0.729,0.504-0.729c0.342,0,0.531,0.153,0.631,0.153
		c0.035,0,0.07-0.054,0.08-0.09l0.162-0.63c0.01-0.027,0.018-0.054,0.018-0.081c0-0.18-0.693-0.324-1.098-0.324
		c-1.08,0-1.441,0.711-1.441,1.701v0.368h-0.639c-0.152,0-0.188,0.027-0.188,0.189v0.459c0,0.162,0.035,0.189,0.188,0.189h0.639
		v3.42c0,0.162,0.037,0.188,0.189,0.188h0.766c0.152,0,0.189-0.026,0.189-0.188V36.462L71.236,36.462z"/>
	<path fill-rule="evenodd" clip-rule="evenodd" fill="#1A171B" d="M76.889,39.972c0.063-0.019,0.1-0.054,0.1-0.1
		c0-0.206-0.172-0.135-0.172-1.403V35.66c0-0.152-0.018-0.188-0.063-0.188c-0.035,0-0.125,0.027-0.152,0.027l-0.756,0.152
		c-0.109,0.027-0.172,0.036-0.172,0.162v3.186c-0.117,0.082-0.414,0.28-0.791,0.28c-0.459,0-0.504-0.415-0.504-0.757V35.66
		c0-0.152-0.02-0.188-0.072-0.188c-0.027,0-0.117,0.027-0.145,0.027l-0.756,0.152c-0.107,0.027-0.172,0.036-0.172,0.162v3.096
		c0,1.09,0.676,1.314,1.17,1.314c0.711,0,1.135-0.314,1.377-0.531c0.1,0.36,0.172,0.531,0.289,0.531c0.035,0,0.08-0.009,0.135-0.027
		L76.889,39.972L76.889,39.972z M74.883,34.203c0-0.342-0.279-0.621-0.621-0.621c-0.352,0-0.621,0.278-0.621,0.621
		s0.279,0.621,0.621,0.621S74.883,34.545,74.883,34.203L74.883,34.203z M76.475,34.203c0-0.333-0.27-0.621-0.621-0.621
		c-0.35,0-0.621,0.278-0.621,0.621s0.279,0.621,0.621,0.621S76.475,34.545,76.475,34.203L76.475,34.203z"/>
	<path fill="#1A171B" d="M79.418,36.938c0.117-0.126,0.406-0.432,0.684-0.432c0.209,0,0.369,0.1,0.424,0.1
		c0.037,0,0.063-0.055,0.072-0.081l0.279-0.757c0.008-0.018,0.018-0.054,0.018-0.09c0-0.117-0.262-0.207-0.521-0.207
		c-0.613,0-0.945,0.504-1.117,0.711c-0.045-0.306-0.225-0.711-0.332-0.711c-0.037,0-0.082,0.027-0.117,0.036l-0.684,0.279
		c-0.045,0.018-0.082,0.045-0.082,0.081c0,0.206,0.234,0.368,0.234,1.359v2.718c0,0.099,0.018,0.125,0.125,0.125h0.893
		c0.107,0,0.125-0.026,0.125-0.125V36.938L79.418,36.938z"/>
	<path fill="#1A171B" d="M86.4,34.985h1.115c0.072,0,0.172,0,0.207-0.144l0.189-0.711c0.018-0.063,0.027-0.081,0.027-0.125
		c0-0.081-0.045-0.099-0.225-0.099h-3.709c-0.125,0-0.152,0.027-0.152,0.153v0.774c0,0.126,0.027,0.152,0.152,0.152h1.18v4.896
		c0,0.162,0.035,0.188,0.188,0.188h0.838c0.154,0,0.189-0.026,0.189-0.188V34.985L86.4,34.985z"/>
	<path fill-rule="evenodd" clip-rule="evenodd" fill="#1A171B" d="M90.918,39.054c-0.018-0.036-0.055-0.072-0.1-0.072
		c-0.125,0-0.494,0.298-1.143,0.298c-0.846,0-0.99-0.621-0.99-1.125h2.422c0.17,0,0.207-0.055,0.207-0.226
		c0-1.089-0.27-2.457-1.801-2.457c-1.205,0-1.971,0.99-1.971,2.421c0,1.656,0.828,2.331,2.016,2.331
		c0.711,0,1.611-0.297,1.611-0.531c0-0.036-0.01-0.072-0.027-0.099L90.918,39.054L90.918,39.054z M88.686,37.316
		c0.027-0.251,0.063-1.008,0.766-1.008c0.621,0,0.646,0.64,0.646,1.008H88.686L88.686,37.316z"/>
	<path fill="#1A171B" d="M95.229,39.063c-0.018-0.027-0.035-0.045-0.063-0.045c-0.162,0-0.342,0.307-0.801,0.307
		c-0.693,0-0.928-0.46-0.928-1.45c0-1.034,0.27-1.502,0.883-1.502c0.467,0,0.764,0.359,0.855,0.359c0.025,0,0.043-0.026,0.063-0.045
		l0.332-0.584c0.01-0.028,0.027-0.055,0.027-0.081c0-0.28-0.791-0.55-1.277-0.55c-1.332,0-2.098,0.945-2.098,2.466
		c0,1.521,0.746,2.286,1.998,2.286c0.539,0,1.27-0.261,1.27-0.477c0-0.027-0.018-0.063-0.027-0.091L95.229,39.063L95.229,39.063z"/>
	<path fill="#1A171B" d="M100.068,36.894c0-0.783-0.215-1.422-1.17-1.422c-0.639,0-0.998,0.315-1.242,0.514v-2.242
		c0-0.152-0.018-0.188-0.09-0.188c-0.018,0-0.1,0.027-0.125,0.027l-0.758,0.153c-0.107,0.027-0.17,0.027-0.17,0.162v6.048
		c0,0.099,0.018,0.125,0.127,0.125h0.891c0.107,0,0.125-0.026,0.125-0.125v-3.15c0.117-0.108,0.387-0.378,0.766-0.378
		c0.459,0,0.504,0.414,0.504,0.756v2.772c0,0.099,0.018,0.125,0.125,0.125h0.891c0.109,0,0.127-0.026,0.127-0.125V36.894
		L100.068,36.894z"/>
	<path fill="#1A171B" d="M105.082,36.785c0-1.089-0.676-1.313-1.17-1.313c-0.711,0-1.115,0.387-1.377,0.621
		c-0.1-0.423-0.172-0.621-0.287-0.621c-0.037,0-0.082,0.01-0.137,0.027l-0.684,0.225c-0.063,0.018-0.098,0.054-0.098,0.1
		c0,0.207,0.17,0.134,0.17,1.404v2.718c0,0.099,0.018,0.125,0.127,0.125h0.891c0.107,0,0.125-0.026,0.125-0.125v-3.16
		c0.117-0.107,0.414-0.368,0.793-0.368c0.459,0,0.504,0.414,0.504,0.756v2.772c0,0.099,0.018,0.125,0.125,0.125h0.891
		c0.109,0,0.127-0.026,0.127-0.125V36.785L105.082,36.785z"/>
	<path fill-rule="evenodd" clip-rule="evenodd" fill="#1A171B" d="M107.998,35.751c0-0.1-0.018-0.127-0.125-0.127h-1.711
		c-0.107,0-0.125,0.027-0.125,0.127v0.585c0,0.099,0.018,0.126,0.125,0.126h0.693v3.483c0,0.099,0.018,0.125,0.127,0.125h0.891
		c0.107,0,0.125-0.026,0.125-0.125V35.751L107.998,35.751z M108.16,34.293c0-0.414-0.332-0.738-0.736-0.738
		c-0.416,0-0.748,0.324-0.748,0.738s0.332,0.746,0.748,0.746C107.828,35.039,108.16,34.707,108.16,34.293L108.16,34.293z"/>
	<path fill="#1A171B" d="M111.713,37.578l1.459-1.423c0.045-0.045,0.08-0.081,0.08-0.116c0-0.036-0.008-0.063-0.045-0.099
		l-0.449-0.37c-0.072-0.053-0.107-0.099-0.162-0.099c-0.027,0-0.1,0.055-0.127,0.09l-1.727,1.746v-3.564
		c0-0.152-0.02-0.188-0.072-0.188c-0.027,0-0.117,0.018-0.145,0.027l-0.756,0.153c-0.107,0.018-0.172,0.036-0.172,0.162v6.048
		c0,0.099,0.02,0.125,0.127,0.125h0.891c0.107,0,0.127-0.026,0.127-0.125v-1.963h0.018l1.646,2.151
		c0.027,0.036,0.072,0.09,0.107,0.09c0.037,0,0.072-0.018,0.109-0.036l0.766-0.423c0.035-0.018,0.045-0.045,0.045-0.081
		s-0.037-0.09-0.082-0.135L111.713,37.578L111.713,37.578z"/>
	<path fill="#89BA17" d="M25.966,60.943c0.008-0.03,0.015-0.089,0.015-0.111c0-0.044-0.015-0.081-0.11-0.081h-0.689
		c-0.087,0-0.109,0.008-0.131,0.104l-0.674,3.264c-0.11,0.51-0.308,1.028-0.945,1.028c-0.381,0-0.652-0.147-0.652-0.555
		c0-0.163,0.022-0.326,0.066-0.481l0.688-3.167c0.007-0.03,0.015-0.089,0.015-0.111c0-0.044-0.015-0.081-0.111-0.081h-0.71
		c-0.088,0-0.11,0.008-0.132,0.104l-0.674,3.248c-0.044,0.208-0.073,0.415-0.073,0.63c0,0.829,0.571,1.213,1.479,1.213
		c1.539,0,1.803-1.006,1.979-1.843L25.966,60.943L25.966,60.943z"/>
	<path fill="#89BA17" d="M29.211,63.393c0.044-0.185,0.073-0.385,0.073-0.577c0-0.406-0.263-0.777-0.74-0.777
		c-0.601,0-1.019,0.511-1.216,0.748c0-0.415-0.065-0.748-0.146-0.748c-0.037,0-0.051,0.015-0.073,0.022l-0.586,0.229
		c-0.037,0.015-0.088,0.029-0.088,0.081c0,0.134,0.066,0.237,0.066,0.459c0,0.237-0.043,0.422-0.088,0.606l-0.498,2.228
		c0,0.03-0.008,0.06-0.008,0.082c0,0.059,0.037,0.074,0.095,0.074h0.681c0.074,0,0.089-0.008,0.103-0.09l0.315-1.465
		c0.117-0.532,0.359-1.45,1.032-1.45c0.154,0,0.22,0.118,0.22,0.289c0,0.155-0.029,0.303-0.066,0.451l-0.483,2.108
		c0,0.03-0.008,0.06-0.008,0.082c0,0.059,0.037,0.074,0.096,0.074h0.682c0.073,0,0.087-0.008,0.102-0.09L29.211,63.393
		L29.211,63.393z"/>
	<path fill-rule="evenodd" clip-rule="evenodd" fill="#89BA17" d="M31.547,62.327c0.008-0.022,0.008-0.066,0.008-0.097
		c0-0.044-0.029-0.066-0.088-0.066h-1.363c-0.073,0-0.095,0.008-0.109,0.089l-0.081,0.415c-0.008,0.029-0.015,0.059-0.015,0.088
		c0,0.053,0.029,0.074,0.095,0.074h0.556l-0.593,2.834c-0.008,0.03-0.008,0.06-0.008,0.082c0,0.059,0.037,0.074,0.095,0.074h0.682
		c0.073,0,0.088-0.008,0.102-0.09L31.547,62.327L31.547,62.327z M31.936,61.069c0-0.363-0.308-0.607-0.608-0.607
		c-0.293,0-0.601,0.237-0.601,0.607c0,0.348,0.271,0.614,0.601,0.614S31.936,61.417,31.936,61.069L31.936,61.069z"/>
	<path fill="#89BA17" d="M35.327,62.356c0.022-0.044,0.051-0.081,0.051-0.104c0-0.045-0.029-0.066-0.109-0.074l-0.542-0.073
		c-0.065-0.008-0.095-0.016-0.124-0.016c-0.037,0-0.067,0.03-0.082,0.06l-0.871,1.799c-0.176,0.362-0.352,0.776-0.425,0.991h-0.015
		c0-0.074-0.007-0.637-0.029-0.991l-0.11-1.71c0-0.118-0.015-0.148-0.074-0.148c-0.029,0-0.094,0.008-0.153,0.016l-0.542,0.073
		c-0.081,0.008-0.11,0.045-0.11,0.074c0,0.022,0,0.06,0.008,0.097l0.418,3.448c0.006,0.096,0.051,0.096,0.102,0.096h0.608
		c0.059,0,0.073-0.015,0.103-0.066L35.327,62.356L35.327,62.356z"/>
	<path fill-rule="evenodd" clip-rule="evenodd" fill="#89BA17" d="M37.816,64.961c-0.015-0.028-0.022-0.052-0.059-0.052
		c-0.109,0-0.498,0.296-0.93,0.296c-0.689,0-0.631-0.569-0.631-0.791c0.418,0,2.279,0,2.279-1.399c0-0.591-0.396-0.977-1.084-0.977
		c-1.128,0-2.073,1.052-2.073,2.531c0,0.821,0.396,1.376,1.275,1.376c0.748,0,1.429-0.362,1.429-0.459
		c0-0.021-0.015-0.044-0.022-0.065L37.816,64.961L37.816,64.961z M37.26,62.705c0.22,0,0.337,0.17,0.337,0.362
		c0,0.681-0.981,0.681-1.297,0.681C36.366,63.474,36.57,62.705,37.26,62.705L37.26,62.705z"/>
	<path fill="#89BA17" d="M39.852,64.266c0.103-0.495,0.433-1.339,0.997-1.339c0.117,0,0.198,0.051,0.249,0.051
		c0.015,0,0.037-0.021,0.044-0.036l0.308-0.748c0.008-0.021,0.015-0.037,0.015-0.059c0-0.067-0.139-0.097-0.25-0.097
		c-0.564,0-0.938,0.526-1.136,0.748c0-0.415-0.065-0.748-0.146-0.748c-0.037,0-0.051,0.015-0.073,0.022l-0.586,0.229
		c-0.037,0.015-0.088,0.029-0.088,0.081c0,0.134,0.066,0.237,0.066,0.459c0,0.237-0.052,0.422-0.088,0.606l-0.498,2.228
		c-0.008,0.03-0.015,0.06-0.008,0.082c0,0.059,0.037,0.074,0.096,0.074h0.681c0.074,0,0.081-0.008,0.103-0.09L39.852,64.266
		L39.852,64.266z"/>
	<path fill="#89BA17" d="M43.822,62.438c0.007-0.021,0.014-0.036,0.014-0.059c0-0.192-0.578-0.341-0.96-0.341
		c-0.834,0-1.398,0.526-1.398,1.311c0,0.51,0.241,0.65,0.63,0.866c0.381,0.214,0.71,0.243,0.71,0.569
		c0,0.317-0.22,0.496-0.652,0.496c-0.476,0-0.835-0.267-0.931-0.267c-0.022,0-0.037,0.015-0.051,0.051l-0.153,0.459
		c-0.008,0.03-0.016,0.053-0.016,0.082c0,0.097,0.638,0.34,1.194,0.34c0.931,0,1.451-0.532,1.451-1.31
		c0-0.48-0.176-0.644-0.535-0.851c-0.322-0.186-0.805-0.252-0.805-0.622c0-0.252,0.176-0.458,0.571-0.458
		c0.337,0,0.58,0.214,0.719,0.214c0.015,0,0.037-0.008,0.059-0.052L43.822,62.438L43.822,62.438z"/>
	<path fill-rule="evenodd" clip-rule="evenodd" fill="#89BA17" d="M45.958,62.327c0.008-0.022,0.008-0.066,0.008-0.097
		c0-0.044-0.03-0.066-0.088-0.066h-1.362c-0.073,0-0.095,0.008-0.11,0.089l-0.081,0.415c-0.008,0.029-0.015,0.059-0.015,0.088
		c0,0.053,0.03,0.074,0.096,0.074h0.556l-0.593,2.834c-0.007,0.03-0.007,0.06-0.007,0.082c0,0.059,0.037,0.074,0.095,0.074h0.681
		c0.073,0,0.088-0.008,0.103-0.09L45.958,62.327L45.958,62.327z M46.346,61.069c0-0.363-0.307-0.607-0.608-0.607
		c-0.293,0-0.601,0.237-0.601,0.607c0,0.348,0.271,0.614,0.601,0.614C46.068,61.684,46.346,61.417,46.346,61.069L46.346,61.069z"/>
	<path fill="#89BA17" d="M48.624,65.087c-0.015-0.037-0.022-0.051-0.059-0.051c-0.044,0-0.33,0.169-0.66,0.169
		c-0.19,0-0.285-0.088-0.285-0.266c0-0.119,0.022-0.237,0.051-0.355l0.352-1.754h0.945c0.066,0,0.073-0.007,0.103-0.074l0.146-0.414
		c0.008-0.037,0.03-0.066,0.03-0.104c0-0.045-0.037-0.074-0.103-0.074h-0.982l0.206-0.933c0.007-0.037,0.015-0.073,0.015-0.104
		c0-0.037-0.022-0.066-0.051-0.066c-0.037,0-0.066,0.008-0.096,0.008l-0.666,0.096c-0.044,0.008-0.081,0.016-0.096,0.081
		l-0.19,0.918H46.77c-0.059,0-0.095,0.022-0.102,0.089L46.58,62.66c-0.007,0.029-0.014,0.059-0.014,0.096
		c0,0.053,0.029,0.074,0.095,0.074h0.483l-0.395,1.895c-0.037,0.155-0.059,0.312-0.059,0.474c0,0.548,0.352,0.747,0.879,0.747
		c0.469,0,1.172-0.207,1.172-0.325c0-0.021-0.007-0.044-0.007-0.066L48.624,65.087L48.624,65.087z"/>
	<path fill="#89BA17" d="M51.061,64.044c-0.206,0.451-0.381,0.962-0.469,1.236h-0.015c0-0.082-0.029-0.859-0.065-1.332l-0.132-1.702
		c-0.015-0.118-0.015-0.148-0.073-0.148c-0.029,0-0.095,0.008-0.154,0.015l-0.542,0.074c-0.081,0.007-0.11,0.044-0.11,0.074
		c0,0.022,0,0.059,0.008,0.096l0.388,3.367c0.008,0.097,0.052,0.097,0.103,0.097h0.301l-0.242,0.459
		c-0.139,0.259-0.308,0.369-0.623,0.369c-0.278,0-0.462-0.155-0.549-0.155c-0.03,0-0.037,0.015-0.066,0.059l-0.264,0.467
		c-0.007,0.022-0.021,0.045-0.021,0.067c0,0.088,0.454,0.303,0.864,0.303c1.062,0,1.487-1.206,1.868-1.998l1.451-3.026
		c0.022-0.045,0.051-0.096,0.051-0.126s-0.029-0.045-0.109-0.052l-0.542-0.074c-0.066-0.007-0.103-0.015-0.132-0.015
		c-0.036,0-0.059,0.03-0.073,0.059L51.061,64.044L51.061,64.044z"/>
	<path fill-rule="evenodd" clip-rule="evenodd" fill="#89BA17" d="M58.244,63.386c0-0.948-0.461-1.348-1.201-1.348
		c-1.216,0-2.081,1.192-2.081,2.561c0,0.947,0.476,1.347,1.246,1.347C57.395,65.945,58.244,64.755,58.244,63.386L58.244,63.386z
		 M56.34,65.205c-0.315,0-0.446-0.191-0.446-0.54c0-0.717,0.293-1.887,0.974-1.887c0.316,0,0.447,0.193,0.447,0.54
		C57.314,64.036,57.021,65.205,56.34,65.205L56.34,65.205z"/>
	<path fill="#89BA17" d="M60.266,62.83h0.791c0.074,0,0.082-0.015,0.104-0.081l0.131-0.43c0.008-0.029,0.023-0.059,0.023-0.089
		c0-0.029-0.023-0.066-0.088-0.066h-0.836l0.066-0.317c0.066-0.304,0.117-0.593,0.498-0.593c0.219,0,0.365,0.096,0.439,0.096
		c0.016,0,0.037-0.007,0.059-0.051l0.176-0.519c0.008-0.021,0.016-0.037,0.016-0.059c0-0.111-0.434-0.207-0.74-0.207
		c-1.004,0-1.195,0.584-1.305,1.184l-0.088,0.466h-0.543c-0.08,0-0.094,0.022-0.102,0.089l-0.088,0.415
		c-0.008,0.029-0.016,0.059-0.016,0.088c0,0.067,0.059,0.074,0.104,0.074h0.52l-0.57,2.931c-0.096,0.474-0.184,0.813-0.682,0.813
		c-0.153,0-0.278-0.036-0.3-0.036c-0.022,0-0.037,0.014-0.052,0.051l-0.154,0.519c-0.007,0.029-0.014,0.052-0.014,0.081
		c0,0.082,0.314,0.126,0.65,0.126c0.996,0,1.268-0.747,1.406-1.443L60.266,62.83L60.266,62.83z"/>
	<path fill-rule="evenodd" clip-rule="evenodd" fill="#89BA17" d="M66.434,60.877c-0.016-0.126-0.053-0.126-0.133-0.126h-0.703
		c-0.08,0-0.104,0-0.133,0.066l-2.41,4.824c-0.014,0.038-0.035,0.067-0.035,0.097s0.021,0.082,0.094,0.082h0.756
		c0.096,0,0.102-0.038,0.146-0.104l0.564-1.243h1.244l0.053,1.265c0,0.044,0.043,0.082,0.094,0.082h0.77
		c0.08,0,0.125-0.016,0.125-0.104c0-0.022-0.008-0.053-0.008-0.075L66.434,60.877L66.434,60.877z M65.803,63.808H64.82l0.557-1.28
		c0.125-0.297,0.266-0.563,0.316-0.771h0.014c0,0.289,0.016,0.512,0.029,0.763L65.803,63.808L65.803,63.808z"/>
	<path fill-rule="evenodd" clip-rule="evenodd" fill="#89BA17" d="M68.799,63.889c0.117-0.533,0.432-1.11,0.879-1.11
		c0.227,0,0.352,0.193,0.352,0.511c0,0.77-0.271,1.969-1.02,1.969c-0.248,0-0.41-0.118-0.469-0.148L68.799,63.889L68.799,63.889z
		 M68.41,65.761c0.117,0.066,0.277,0.185,0.637,0.185c1.268,0,1.861-1.612,1.861-2.797c0-0.739-0.279-1.11-0.799-1.11
		c-0.652,0-0.988,0.451-1.172,0.667c0-0.371-0.059-0.667-0.139-0.667c-0.037,0-0.066,0.015-0.088,0.022l-0.586,0.229
		c-0.037,0.015-0.088,0.029-0.088,0.081c0,0.089,0.051,0.267,0.059,0.444c0,0.089,0.006,0.222-0.029,0.385l-0.836,3.967
		c-0.008,0.044-0.029,0.11-0.029,0.155c0,0.036,0,0.066,0.037,0.066c0.021,0,0.08-0.015,0.109-0.021l0.645-0.134
		c0.109-0.022,0.117-0.052,0.133-0.126L68.41,65.761L68.41,65.761z"/>
	<path fill-rule="evenodd" clip-rule="evenodd" fill="#89BA17" d="M72.621,63.889c0.117-0.533,0.432-1.11,0.879-1.11
		c0.227,0,0.352,0.193,0.352,0.511c0,0.77-0.271,1.969-1.018,1.969c-0.25,0-0.41-0.118-0.469-0.148L72.621,63.889L72.621,63.889z
		 M72.232,65.761c0.117,0.066,0.279,0.185,0.639,0.185c1.266,0,1.859-1.612,1.859-2.797c0-0.739-0.277-1.11-0.799-1.11
		c-0.65,0-0.988,0.451-1.172,0.667c0-0.371-0.059-0.667-0.139-0.667c-0.037,0-0.066,0.015-0.088,0.022l-0.586,0.229
		c-0.037,0.015-0.088,0.029-0.088,0.081c0,0.089,0.051,0.267,0.059,0.444c0,0.089,0.008,0.222-0.029,0.385l-0.836,3.967
		c-0.006,0.044-0.029,0.11-0.029,0.155c0,0.036,0,0.066,0.037,0.066c0.021,0,0.08-0.015,0.109-0.021l0.645-0.134
		c0.111-0.022,0.117-0.052,0.133-0.126L72.232,65.761L72.232,65.761z"/>
	<path fill="#89BA17" d="M76.627,65.146c-0.008-0.045-0.029-0.052-0.051-0.052c-0.037,0-0.146,0.052-0.271,0.052
		c-0.109,0-0.168-0.045-0.168-0.147c0-0.104,0.051-0.289,0.088-0.467l0.828-3.849c0.008-0.043,0.021-0.103,0.021-0.147
		c0-0.052-0.008-0.074-0.037-0.074c-0.021,0-0.072,0.016-0.102,0.022l-0.645,0.134c-0.111,0.022-0.117,0.051-0.133,0.125
		l-0.813,3.796c-0.059,0.26-0.088,0.519-0.088,0.785c0,0.48,0.285,0.621,0.711,0.621c0.285,0,0.738-0.103,0.738-0.215
		c0-0.021-0.006-0.051-0.006-0.073L76.627,65.146L76.627,65.146z"/>
	<path fill-rule="evenodd" clip-rule="evenodd" fill="#89BA17" d="M79.023,62.327c0.006-0.022,0.006-0.066,0.006-0.097
		c0-0.044-0.029-0.066-0.088-0.066H77.58c-0.074,0-0.096,0.008-0.111,0.089l-0.08,0.415c-0.008,0.029-0.014,0.059-0.014,0.088
		c0,0.053,0.029,0.074,0.094,0.074h0.559l-0.594,2.834c-0.008,0.03-0.008,0.06-0.008,0.082c0,0.059,0.037,0.074,0.096,0.074h0.682
		c0.072,0,0.088-0.008,0.102-0.09L79.023,62.327L79.023,62.327z M79.41,61.069c0-0.363-0.307-0.607-0.607-0.607
		c-0.293,0-0.6,0.237-0.6,0.607c0,0.348,0.27,0.614,0.6,0.614S79.41,61.417,79.41,61.069L79.41,61.069z"/>
	<path fill-rule="evenodd" clip-rule="evenodd" fill="#89BA17" d="M81.82,64.961c-0.014-0.028-0.021-0.052-0.059-0.052
		c-0.109,0-0.498,0.296-0.93,0.296c-0.689,0-0.631-0.569-0.631-0.791c0.418,0,2.279,0,2.279-1.399c0-0.591-0.396-0.977-1.084-0.977
		c-1.129,0-2.074,1.052-2.074,2.531c0,0.821,0.396,1.376,1.275,1.376c0.746,0,1.428-0.362,1.428-0.459
		c0-0.021-0.014-0.044-0.021-0.065L81.82,64.961L81.82,64.961z M81.264,62.705c0.221,0,0.338,0.17,0.338,0.362
		c0,0.681-0.982,0.681-1.297,0.681C80.369,63.474,80.574,62.705,81.264,62.705L81.264,62.705z"/>
	<path fill-rule="evenodd" clip-rule="evenodd" fill="#89BA17" d="M84.881,64.096c-0.109,0.532-0.432,1.109-0.879,1.109
		c-0.227,0-0.352-0.191-0.352-0.51c0-0.77,0.271-1.954,1.02-1.954c0.248,0,0.41,0.104,0.469,0.134L84.881,64.096L84.881,64.096z
		 M85.557,65.694c0.035-0.015,0.088-0.03,0.088-0.082c0-0.089-0.053-0.267-0.059-0.443c0-0.089-0.008-0.223,0.029-0.385l0.863-4.101
		c0.008-0.043,0.021-0.103,0.021-0.14c0-0.06-0.006-0.082-0.035-0.082c-0.023,0-0.074,0.016-0.104,0.022l-0.645,0.134
		c-0.109,0.022-0.117,0.051-0.131,0.125l-0.316,1.48c-0.117-0.067-0.277-0.186-0.637-0.186c-1.268,0-1.861,1.614-1.861,2.798
		c0,0.74,0.279,1.109,0.799,1.109c0.652,0,0.988-0.451,1.172-0.665c0,0.369,0.059,0.665,0.139,0.665
		c0.037,0,0.066-0.015,0.088-0.022L85.557,65.694L85.557,65.694z"/>
	<path fill="#89BA17" d="M92.258,61.128c0.021-0.044,0.051-0.081,0.051-0.104c0-0.141-0.756-0.399-1.268-0.399
		c-1.121,0-1.883,0.569-1.883,1.636c0,0.77,0.52,1.058,0.967,1.324c0.359,0.215,0.682,0.414,0.682,0.821
		c0,0.54-0.396,0.74-0.842,0.74c-0.543,0-1.004-0.311-1.086-0.311c-0.051,0-0.051,0.015-0.08,0.066l-0.277,0.54
		c-0.023,0.044-0.053,0.081-0.053,0.104c0,0.134,0.814,0.399,1.363,0.399c1.246,0,1.963-0.747,1.963-1.739
		c0-0.429-0.168-0.717-0.424-0.925c-0.58-0.48-1.26-0.613-1.26-1.169c0-0.451,0.344-0.688,0.813-0.688c0.49,0,0.895,0.31,0.975,0.31
		c0.051,0,0.051-0.014,0.08-0.066L92.258,61.128L92.258,61.128z"/>
	<path fill="#89BA17" d="M94.432,65.036c-0.008-0.016-0.037-0.037-0.059-0.037c-0.088,0-0.279,0.17-0.623,0.17
		c-0.359,0-0.543-0.186-0.543-0.592c0-0.947,0.396-1.799,1.055-1.799c0.463,0,0.58,0.186,0.646,0.186
		c0.021,0,0.043-0.008,0.064-0.045l0.279-0.459c0.014-0.022,0.043-0.066,0.043-0.089c0-0.074-0.41-0.333-0.98-0.333
		c-1.113,0-2.037,0.939-2.037,2.465c0,0.962,0.557,1.442,1.363,1.442c0.416,0,0.996-0.207,0.996-0.34
		c0-0.029-0.016-0.052-0.021-0.074L94.432,65.036L94.432,65.036z"/>
	<path fill-rule="evenodd" clip-rule="evenodd" fill="#89BA17" d="M97.053,62.327c0.008-0.022,0.008-0.066,0.008-0.097
		c0-0.044-0.029-0.066-0.088-0.066h-1.363c-0.072,0-0.096,0.008-0.109,0.089l-0.08,0.415c-0.008,0.029-0.016,0.059-0.016,0.088
		c0,0.053,0.029,0.074,0.096,0.074h0.557l-0.594,2.834c-0.008,0.03-0.008,0.06-0.008,0.082c0,0.059,0.037,0.074,0.096,0.074h0.682
		c0.074,0,0.088-0.008,0.104-0.09L97.053,62.327L97.053,62.327z M97.441,61.069c0-0.363-0.309-0.607-0.607-0.607
		c-0.293,0-0.602,0.237-0.602,0.607c0,0.348,0.271,0.614,0.602,0.614C97.162,61.684,97.441,61.417,97.441,61.069L97.441,61.069z"/>
	<path fill-rule="evenodd" clip-rule="evenodd" fill="#89BA17" d="M99.852,64.961c-0.016-0.028-0.023-0.052-0.061-0.052
		c-0.109,0-0.498,0.296-0.93,0.296c-0.688,0-0.629-0.569-0.629-0.791c0.416,0,2.277,0,2.277-1.399c0-0.591-0.395-0.977-1.084-0.977
		c-1.129,0-2.074,1.052-2.074,2.531c0,0.821,0.396,1.376,1.275,1.376c0.748,0,1.43-0.362,1.43-0.459
		c0-0.021-0.016-0.044-0.023-0.065L99.852,64.961L99.852,64.961z M99.293,62.705c0.221,0,0.338,0.17,0.338,0.362
		c0,0.681-0.982,0.681-1.297,0.681C98.4,63.474,98.605,62.705,99.293,62.705L99.293,62.705z"/>
	<path fill="#89BA17" d="M104.01,63.393c0.045-0.185,0.074-0.385,0.074-0.577c0-0.406-0.264-0.777-0.74-0.777
		c-0.6,0-1.018,0.511-1.215,0.748c0-0.415-0.066-0.748-0.146-0.748c-0.037,0-0.053,0.015-0.074,0.022l-0.586,0.229
		c-0.037,0.015-0.088,0.029-0.088,0.081c0,0.134,0.066,0.237,0.066,0.459c0,0.237-0.045,0.422-0.088,0.606l-0.498,2.228
		c0,0.03-0.008,0.06-0.008,0.082c0,0.059,0.037,0.074,0.096,0.074h0.68c0.074,0,0.088-0.008,0.104-0.09l0.314-1.465
		c0.117-0.532,0.359-1.45,1.033-1.45c0.154,0,0.221,0.118,0.221,0.289c0,0.155-0.029,0.303-0.066,0.451l-0.484,2.108
		c0,0.03-0.006,0.06-0.006,0.082c0,0.059,0.035,0.074,0.094,0.074h0.682c0.074,0,0.088-0.008,0.104-0.09L104.01,63.393
		L104.01,63.393z"/>
	<path fill="#89BA17" d="M106.596,65.036c-0.008-0.016-0.037-0.037-0.059-0.037c-0.088,0-0.279,0.17-0.623,0.17
		c-0.359,0-0.541-0.186-0.541-0.592c0-0.947,0.395-1.799,1.055-1.799c0.461,0,0.578,0.186,0.645,0.186
		c0.021,0,0.043-0.008,0.066-0.045l0.277-0.459c0.016-0.022,0.045-0.066,0.045-0.089c0-0.074-0.41-0.333-0.982-0.333
		c-1.113,0-2.037,0.939-2.037,2.465c0,0.962,0.557,1.442,1.363,1.442c0.418,0,0.996-0.207,0.996-0.34
		c0-0.029-0.014-0.052-0.021-0.074L106.596,65.036L106.596,65.036z"/>
	<path fill-rule="evenodd" clip-rule="evenodd" fill="#89BA17" d="M109.957,64.961c-0.014-0.028-0.021-0.052-0.059-0.052
		c-0.109,0-0.498,0.296-0.93,0.296c-0.689,0-0.631-0.569-0.631-0.791c0.418,0,2.279,0,2.279-1.399c0-0.591-0.396-0.977-1.084-0.977
		c-1.129,0-2.074,1.052-2.074,2.531c0,0.821,0.396,1.376,1.275,1.376c0.746,0,1.428-0.362,1.428-0.459
		c0-0.021-0.014-0.044-0.021-0.065L109.957,64.961L109.957,64.961z M109.4,62.705c0.221,0,0.338,0.17,0.338,0.362
		c0,0.681-0.982,0.681-1.297,0.681C108.508,63.474,108.713,62.705,109.4,62.705L109.4,62.705z"/>
	<path fill="#89BA17" d="M113.363,62.438c0.008-0.021,0.014-0.036,0.014-0.059c0-0.192-0.578-0.341-0.959-0.341
		c-0.836,0-1.398,0.526-1.398,1.311c0,0.51,0.24,0.65,0.629,0.866c0.381,0.214,0.711,0.243,0.711,0.569
		c0,0.317-0.219,0.496-0.652,0.496c-0.477,0-0.834-0.267-0.93-0.267c-0.021,0-0.037,0.015-0.051,0.051l-0.154,0.459
		c-0.008,0.03-0.016,0.053-0.016,0.082c0,0.097,0.639,0.34,1.195,0.34c0.93,0,1.449-0.532,1.449-1.31
		c0-0.48-0.176-0.644-0.533-0.851c-0.322-0.186-0.807-0.252-0.807-0.622c0-0.252,0.176-0.458,0.572-0.458
		c0.336,0,0.578,0.214,0.717,0.214c0.016,0,0.037-0.008,0.059-0.052L113.363,62.438L113.363,62.438z"/>
	<polygon fill="#89BA17" points="59.463,7.345 64.779,7.345 64.779,17.975 59.463,17.975 59.463,7.345 	"/>
	<polygon fill="#B0B2B3" points="70.094,17.975 70.094,23.29 64.779,23.29 64.779,17.975 70.094,17.975 	"/>
	<path fill="#89BA17" d="M22.26,2.03h5.314v5.315h5.315v5.315h-5.315v5.315h5.315v5.315h-5.315c-2.935,0-5.314-2.379-5.314-5.315
		C22.28,17.978,22.26,2.03,22.26,2.03L22.26,2.03z"/>
	<path fill="#89BA17" d="M38.204,7.345h5.315v10.63h5.315V7.345h5.314v10.63h5.314v5.315H43.52c-2.936,0-5.315-2.379-5.315-5.315
		V7.345L38.204,7.345z"/>
	<polygon fill="#B0B2B3" points="6.314,12.66 6.314,23.29 1,23.29 1,12.66 6.314,12.66 	"/>
	<polygon fill="#B0B2B3" points="6.314,2.03 6.314,7.345 1,7.345 1,2.03 6.314,2.03 	"/>
	<path fill="#B0B2B3" d="M6.312,7.345l5.315-0.001c2.936,0,5.317,2.381,5.317,5.316v10.63H11.63V12.66H6.314L6.312,7.345
		L6.312,7.345z"/>
</g>
</svg>
